HIERARCHY
ROOT Hips
{
  OFFSET -107.9 92.6072 40.8889
  CHANNELS 6 Xposition Yposition Zposition Zrotation Xrotation Yrotation
  JOINT ToSpine
  {
    OFFSET -2.69724 7.43032 -0.144315
    CHANNELS 3 Zrotation Xrotation Yrotation
    JOINT Spine
    {
      OFFSET -0.0310711 10.7595 1.96963
      CHANNELS 3 Zrotation Xrotation Yrotation
      JOINT Spine1
      {
        OFFSET 13.1342 3.43533 0.764692
        CHANNELS 3 Zrotation Xrotation Yrotation
        JOINT Neck
        {
          OFFSET 29.8703 7.82586 -0.130764
          CHANNELS 3 Zrotation Xrotation Yrotation
          JOINT Head
          {
            OFFSET 9.52751 0.295786 -0.907742
            CHANNELS 3 Zrotation Xrotation Yrotation
            End Site
            {
              OFFSET 16.4037 0.713936 2.7358
            }
          }
        }
        JOINT LeftShoulder
        {
          OFFSET 27.5574 4.95586 2.47156
          CHANNELS 3 Zrotation Xrotation Yrotation
          JOINT LeftArm
          {
            OFFSET 1.20734 -0.998971 20.1238
            CHANNELS 3 Zrotation Xrotation Yrotation
            JOINT LeftForeArm
            {
              OFFSET 26.8049 -0.0536703 -0.155908
              CHANNELS 3 Zrotation Xrotation Yrotation
              JOINT LeftHand
              {
                OFFSET 26.6817 0 0.320147
                CHANNELS 3 Zrotation Xrotation Yrotation
                End Site
                {
                  OFFSET 18.6119 0 0.382219
                }
              }
            }
          }
        }
        JOINT RightShoulder
        {
          OFFSET 27.5927 4.71444 -2.65209
          CHANNELS 3 Zrotation Xrotation Yrotation
          JOINT RightArm
          {
            OFFSET 2.83739 -1.17114 -18.7564
            CHANNELS 3 Zrotation Xrotation Yrotation
            JOINT RightForeArm
            {
              OFFSET 28.839 -0.0548439 1.22491
              CHANNELS 3 Zrotation Xrotation Yrotation
              JOINT RightHand
              {
                OFFSET 26.5114 0 -0.101894
                CHANNELS 3 Zrotation Xrotation Yrotation
                End Site
                {
                  OFFSET 18.2168 0 0
                }
              }
            }
          }
        }
      }
    }
  }
  JOINT LeftUpLeg
  {
    OFFSET -4.76168 -1.9167 -10.2353
    CHANNELS 3 Zrotation Xrotation Yrotation
    JOINT LeftLeg
    {
      OFFSET 2.55951 -42.0585 -8.02213
      CHANNELS 3 Zrotation Xrotation Yrotation
      JOINT LeftFoot
      {
        OFFSET 3.16357 -42.5282 -3.95426
        CHANNELS 3 Zrotation Xrotation Yrotation
        JOINT LeftToeBase
        {
          OFFSET 0.346054 -6.02161 12.8035
          CHANNELS 3 Zrotation Xrotation Yrotation
          End Site
          {
            OFFSET 0.134235 -1.35082 5.13018
          }
        }
      }
    }
  }
  JOINT RightUpLeg
  {
    OFFSET -4.94151 -1.41743 10.6446
    CHANNELS 3 Zrotation Xrotation Yrotation
    JOINT RightLeg
    {
      OFFSET -2.56294 -42.0364 -7.94377
      CHANNELS 3 Zrotation Xrotation Yrotation
      JOINT RightFoot
      {
        OFFSET -3.0952 -42.555 -4.02241
        CHANNELS 3 Zrotation Xrotation Yrotation
        JOINT RightToeBase
        {
          OFFSET -0.0828122 -6.13587 12.8035
          CHANNELS 3 Zrotation Xrotation Yrotation
          End Site
          {
            OFFSET -0.131328 -1.35082 5.13018
          }
        }
      }
    }
  }
}
MOTION
Frames:	8
Frame Time:	0.0333333
-166.426 96.3649 -225.314 56.4639 -46.1186 -25.3419 -70.1915 0 88.8779 76.2181 70.6513 11.4314 3.30469 20.398 1.71666 -160.365 26.3749 175.209 -159.651 65.5561 177.853 -0.312158 -15.9011 -34.4228 -65.4853 44.6381 -94.1492 11.0427 16.9231 -33.422 0.420957 0.000575323 0.35866 -1.90936 6.2873 44.8294 -68.7151 -33.5953 93.9298 5.71834 -10.2365 29.6462 0.58676 0.000331081 0.0646653 -49.7109 -3.04328 96.0807 -0.884745 30.2394 -13.3523 6.42149 -16.1437 -1.29084 1.24626 -5.67118 9.60056 -41.4738 6.02906 86.5099 0.291732 26.733 2.78221 -10.732 -4.53224 1.53726 0.813457 -4.08794 -3.09318 
-166.65 96.5025 -225.724 56.3142 -46.1106 -25.3072 -70.1915 0 88.8779 80.1725 70.7262 7.08662 1.16423 20.1055 2.54827 -159.591 26.6516 175.494 -161.023 65.9858 179.58 -0.323496 -15.8665 -34.7894 -65.8262 44.3124 -93.5144 11.5043 18.2703 -32.5652 0.420957 0.000575323 0.35866 -1.94001 5.98825 46.8217 -68.2689 -31.6683 93.3617 6.74209 -12.1836 29.4618 0.58676 0.000331081 0.0646653 -49.5462 -2.95569 95.8478 -0.951208 29.9201 -13.3582 6.09575 -16.3002 -1.2998 1.38434 -5.78181 9.09203 -40.4312 6.69712 88.2563 0.149526 28.9119 5.03814 -2.49071 -6.78425 0.835843 2.12224 -3.44534 -12.9546 
-166.785 96.6068 -226.167 56.6665 -46.3071 -24.8569 -70.1915 0 88.8779 80.6772 70.732 6.90014 1.57843 20.1222 2.34888 -159.115 26.7509 175.807 -161.526 66.1547 -179.077 -0.405544 -16.2246 -34.7025 -62.2989 43.3782 -96.7557 10.1302 17.2762 -30.6352 0.420957 0.000575323 0.35866 -1.93145 6.10052 46.1015 -68.1051 -32.0037 94.6279 6.71569 -13.2929 27.5077 0.58676 0.000331081 0.0646653 -49.3474 -3.12579 95.4309 -0.800344 30.5342 -14.0501 5.01425 -16.4484 -1.32179 0.722396 -5.21844 11.3047 -39.9625 6.99188 89.0384 1.04296 31.5555 2.93915 -7.08313 -5.56234 1.15021 1.97282 -8.93205 -10.4947 
-166.771 96.5857 -226.373 57.3159 -46.46 -24.3878 -70.1915 0 88.8779 81.6522 70.6663 6.1166 1.69804 20.0622 2.10254 -159.011 26.5535 176.391 -162.483 66.0465 -177.667 -0.347976 -16.0024 -34.6336 -61.4795 43.1224 -97.1338 10.3673 17.6794 -30.6631 0.420957 0.000575323 0.35866 -1.95845 6.19174 46.0607 -67.4329 -32.3578 94.9001 6.3566 -12.8751 27.3019 0.58676 0.000331081 0.0646653 -49.6971 -3.25867 95.4974 -0.744116 30.649 -14.0527 5.27189 -16.8769 -1.33238 0.409487 -4.72452 11.4365 -40.3726 7.13914 90.0319 1.50723 33.9975 1.77924 -7.45982 -5.73394 1.18684 1.90791 -10.7734 -8.8051 
-166.588 96.5413 -226.41 57.7711 -46.1667 -24.3374 -70.1915 0 88.8779 79.1003 70.4682 8.52551 2.38688 20.0513 1.68015 -158.102 26.4996 175.957 -162.111 65.9557 -177.631 -0.343169 -16.0071 -34.5322 -61.5134 43.2114 -96.725 10.6865 18.3742 -30.5137 0.420957 0.000575323 0.35866 -1.98803 6.15426 46.6965 -65.845 -31.8527 95.2691 5.73828 -11.9235 27.0348 0.58676 0.000331081 0.0646653 -49.942 -3.71467 95.7615 -0.71474 30.7041 -14.5881 5.32044 -17.4741 -1.35242 0.0047238 -4.34772 12.5232 -41.5969 6.79313 90.8215 1.44369 33.9981 1.68121 -7.10651 -4.33947 1.13816 1.64084 -10.9489 -4.71441 
-166.371 96.5528 -226.292 57.8726 -45.6209 -24.4153 -70.1915 0 88.8779 76.2023 70.2294 11.2187 2.79177 19.9865 1.60496 -158.037 26.3901 175.331 -160.142 65.6652 -179.847 -0.241512 -15.6621 -34.1633 -61.4982 43.7291 -96.5381 10.7238 18.5976 -30.3555 0.420957 0.000575323 0.35866 -1.92073 5.88379 47.073 -63.3088 -31.299 96.1766 4.86573 -10.2747 26.8673 0.58676 0.000331081 0.0646653 -50.0044 -3.9855 96.1356 -0.767012 30.6055 -15.1363 5.33536 -18.3334 -1.38012 -0.585557 -3.62174 13.3834 -43.3403 6.30882 90.9707 0.962536 31.3977 4.29226 -6.56187 -5.95416 1.11998 1.86627 -11.6921 -7.04473 
-165.999 96.4628 -226.101 58.0059 -45.0452 -24.7088 -70.1915 0 88.8779 72.5706 69.9337 14.6354 3.50575 20.0142 1.36216 -158.178 26.2511 175.205 -159.35 65.4419 179.268 -0.220484 -15.5634 -34.2121 -61.5554 44.0913 -96.0432 9.94222 17.5161 -29.9548 0.420957 0.000575323 0.35866 -1.91654 5.87306 47.0609 -63.4952 -31.6796 95.5204 5.60899 -11.954 26.8706 0.58676 0.000331081 0.0646653 -50.115 -4.79004 96.0563 -0.759488 30.7646 -15.9485 6.03598 -18.8797 -1.37277 -1.25903 -3.26196 15.828 -44.9762 5.2683 89.5909 0.161837 28.7343 7.8897 -6.08036 -6.94656 1.10678 2.10499 -13.7792 -10.1136 
-165.684 96.529 -225.85 57.6519 -44.6069 -25.0871 -70.1915 0 88.8779 68.7306 69.6738 18.609 4.187 20.2048 1.23967 -157.665 25.876 175.046 -158.749 64.9991 178.953 -0.190481 -15.3965 -34.409 -62.5769 44.0445 -95.1696 10.4869 18.9694 -29.7271 0.420957 0.000575323 0.35866 -1.91561 5.75304 47.7067 -64.8613 -31.4081 94.0884 7.06243 -16.2631 26.5506 0.58676 0.000331081 0.0646653 -50.2751 -5.15352 95.8734 -0.778303 30.077 -15.6702 5.97397 -18.9774 -1.3778 -1.11145 -3.7707 16.8095 -45.2119 4.96911 89.0064 -0.287763 28.2866 7.78359 -6.22351 -8.98703 1.16646 1.92709 -11.3054 -8.72269 
